<svg width="16" height="16" viewBox="0 0 16 16" fill="none" xmlns="http://www.w3.org/2000/svg">
<path d="M8 8H8.00667" stroke="#F37B44" stroke-linecap="round" stroke-linejoin="round"/>
<path d="M10.6668 3.99998V2.66665C10.6668 2.31302 10.5264 1.97389 10.2763 1.72384C10.0263 1.47379 9.68712 1.33331 9.3335 1.33331H6.66683C6.31321 1.33331 5.97407 1.47379 5.72402 1.72384C5.47397 1.97389 5.3335 2.31302 5.3335 2.66665V3.99998" stroke="#F37B44" stroke-linecap="round" stroke-linejoin="round"/>
<path d="M14.6668 8.66669C12.6887 9.97267 10.3705 10.6689 8.00016 10.6689C5.6298 10.6689 3.31163 9.97267 1.3335 8.66669" stroke="#F37B44" stroke-linecap="round" stroke-linejoin="round"/>
<path d="M13.3335 4H2.66683C1.93045 4 1.3335 4.59695 1.3335 5.33333V12C1.3335 12.7364 1.93045 13.3333 2.66683 13.3333H13.3335C14.0699 13.3333 14.6668 12.7364 14.6668 12V5.33333C14.6668 4.59695 14.0699 4 13.3335 4Z" stroke="#F37B44" stroke-linecap="round" stroke-linejoin="round"/>
</svg>
