<svg width="137" height="28" viewBox="0 0 137 28" fill="none" xmlns="http://www.w3.org/2000/svg">
<path d="M13.2415 17.5V14L9.93117 11L14.345 8L16.5519 11H18.7588M9.93117 17.5C9.93117 19.433 8.20206 21 6.0691 21C3.93614 21 2.20703 19.433 2.20703 17.5C2.20703 15.567 3.93614 14 6.0691 14C8.20206 14 9.93117 15.567 9.93117 17.5ZM24.276 17.5C24.276 19.433 22.5469 21 20.4139 21C18.281 21 16.5519 19.433 16.5519 17.5C16.5519 15.567 18.281 14 20.4139 14C22.5469 14 24.276 15.567 24.276 17.5ZM16.5519 6C16.8445 6 17.1252 5.89464 17.3321 5.70711C17.5391 5.51957 17.6553 5.26522 17.6553 5C17.6553 4.73478 17.5391 4.48043 17.3321 4.29289C17.1252 4.10536 16.8445 4 16.5519 4C16.2592 4 15.9785 4.10536 15.7716 4.29289C15.5647 4.48043 15.4484 4.73478 15.4484 5C15.4484 5.26522 15.5647 5.51957 15.7716 5.70711C15.9785 5.89464 16.2592 6 16.5519 6Z" stroke="#F37B44" stroke-width="2" stroke-linecap="round" stroke-linejoin="round"/>
<path d="M33.9412 14C33.9412 12.6267 34.2479 11.4 34.8612 10.32C35.4879 9.22667 36.3345 8.38 37.4012 7.78C38.4812 7.16667 39.6879 6.86 41.0212 6.86C42.5812 6.86 43.9479 7.26 45.1212 8.06C46.2945 8.86 47.1145 9.96667 47.5812 11.38H44.3612C44.0412 10.7133 43.5879 10.2133 43.0012 9.88C42.4279 9.54667 41.7612 9.38 41.0012 9.38C40.1879 9.38 39.4612 9.57333 38.8212 9.96C38.1945 10.3333 37.7012 10.8667 37.3412 11.56C36.9945 12.2533 36.8212 13.0667 36.8212 14C36.8212 14.92 36.9945 15.7333 37.3412 16.44C37.7012 17.1333 38.1945 17.6733 38.8212 18.06C39.4612 18.4333 40.1879 18.62 41.0012 18.62C41.7612 18.62 42.4279 18.4533 43.0012 18.12C43.5879 17.7733 44.0412 17.2667 44.3612 16.6H47.5812C47.1145 18.0267 46.2945 19.14 45.1212 19.94C43.9612 20.7267 42.5945 21.12 41.0212 21.12C39.6879 21.12 38.4812 20.82 37.4012 20.22C36.3345 19.6067 35.4879 18.76 34.8612 17.68C34.2479 16.6 33.9412 15.3733 33.9412 14ZM60.5728 9.92L53.7128 26.24H50.7328L53.1328 20.72L48.6928 9.92H51.8328L54.6928 17.66L57.5928 9.92H60.5728ZM61.3621 15.46C61.3621 14.3133 61.5955 13.3133 62.0621 12.46C62.5288 11.5933 63.1755 10.9267 64.0021 10.46C64.8288 9.98 65.7755 9.74 66.8421 9.74C68.2155 9.74 69.3488 10.0867 70.2421 10.78C71.1488 11.46 71.7555 12.42 72.0621 13.66H69.0421C68.8821 13.18 68.6088 12.8067 68.2221 12.54C67.8488 12.26 67.3821 12.12 66.8221 12.12C66.0221 12.12 65.3888 12.4133 64.9221 13C64.4555 13.5733 64.2221 14.3933 64.2221 15.46C64.2221 16.5133 64.4555 17.3333 64.9221 17.92C65.3888 18.4933 66.0221 18.78 66.8221 18.78C67.9555 18.78 68.6955 18.2733 69.0421 17.26H72.0621C71.7555 18.46 71.1488 19.4133 70.2421 20.12C69.3355 20.8267 68.2021 21.18 66.8421 21.18C65.7755 21.18 64.8288 20.9467 64.0021 20.48C63.1755 20 62.5288 19.3333 62.0621 18.48C61.5955 17.6133 61.3621 16.6067 61.3621 15.46ZM76.9134 6.2V21H74.1134V6.2H76.9134ZM89.9798 15.22C89.9798 15.62 89.9531 15.98 89.8998 16.3H81.7998C81.8665 17.1 82.1465 17.7267 82.6398 18.18C83.1331 18.6333 83.7398 18.86 84.4598 18.86C85.4998 18.86 86.2398 18.4133 86.6798 17.52H89.6998C89.3798 18.5867 88.7665 19.4667 87.8598 20.16C86.9531 20.84 85.8398 21.18 84.5198 21.18C83.4531 21.18 82.4931 20.9467 81.6398 20.48C80.7998 20 80.1398 19.3267 79.6598 18.46C79.1931 17.5933 78.9598 16.5933 78.9598 15.46C78.9598 14.3133 79.1931 13.3067 79.6598 12.44C80.1265 11.5733 80.7798 10.9067 81.6198 10.44C82.4598 9.97333 83.4265 9.74 84.5198 9.74C85.5731 9.74 86.5131 9.96667 87.3398 10.42C88.1798 10.8733 88.8265 11.52 89.2798 12.36C89.7465 13.1867 89.9798 14.14 89.9798 15.22ZM87.0798 14.42C87.0665 13.7 86.8065 13.1267 86.2998 12.7C85.7931 12.26 85.1731 12.04 84.4398 12.04C83.7465 12.04 83.1598 12.2533 82.6798 12.68C82.2131 13.0933 81.9265 13.6733 81.8198 14.42H87.0798ZM107.244 7.04V21H104.444V11.92L100.704 21H98.5836L94.8236 11.92V21H92.0236V7.04H95.2036L99.6436 17.42L104.084 7.04H107.244ZM109.292 15.42C109.292 14.3 109.512 13.3067 109.952 12.44C110.405 11.5733 111.012 10.9067 111.772 10.44C112.545 9.97333 113.405 9.74 114.352 9.74C115.179 9.74 115.899 9.90667 116.512 10.24C117.139 10.5733 117.639 10.9933 118.012 11.5V9.92H120.832V21H118.012V19.38C117.652 19.9 117.152 20.3333 116.512 20.68C115.885 21.0133 115.159 21.18 114.332 21.18C113.399 21.18 112.545 20.94 111.772 20.46C111.012 19.98 110.405 19.3067 109.952 18.44C109.512 17.56 109.292 16.5533 109.292 15.42ZM118.012 15.46C118.012 14.78 117.879 14.2 117.612 13.72C117.345 13.2267 116.985 12.8533 116.532 12.6C116.079 12.3333 115.592 12.2 115.072 12.2C114.552 12.2 114.072 12.3267 113.632 12.58C113.192 12.8333 112.832 13.2067 112.552 13.7C112.285 14.18 112.152 14.7533 112.152 15.42C112.152 16.0867 112.285 16.6733 112.552 17.18C112.832 17.6733 113.192 18.0533 113.632 18.32C114.085 18.5867 114.565 18.72 115.072 18.72C115.592 18.72 116.079 18.5933 116.532 18.34C116.985 18.0733 117.345 17.7 117.612 17.22C117.879 16.7267 118.012 16.14 118.012 15.46ZM126.367 11.52C126.727 11.0133 127.22 10.5933 127.847 10.26C128.487 9.91333 129.213 9.74 130.027 9.74C130.973 9.74 131.827 9.97333 132.587 10.44C133.36 10.9067 133.967 11.5733 134.407 12.44C134.86 13.2933 135.087 14.2867 135.087 15.42C135.087 16.5533 134.86 17.56 134.407 18.44C133.967 19.3067 133.36 19.98 132.587 20.46C131.827 20.94 130.973 21.18 130.027 21.18C129.213 21.18 128.493 21.0133 127.867 20.68C127.253 20.3467 126.753 19.9267 126.367 19.42V26.28H123.567V9.92H126.367V11.52ZM132.227 15.42C132.227 14.7533 132.087 14.18 131.807 13.7C131.54 13.2067 131.18 12.8333 130.727 12.58C130.287 12.3267 129.807 12.2 129.287 12.2C128.78 12.2 128.3 12.3333 127.847 12.6C127.407 12.8533 127.047 13.2267 126.767 13.72C126.5 14.2133 126.367 14.7933 126.367 15.46C126.367 16.1267 126.5 16.7067 126.767 17.2C127.047 17.6933 127.407 18.0733 127.847 18.34C128.3 18.5933 128.78 18.72 129.287 18.72C129.807 18.72 130.287 18.5867 130.727 18.32C131.18 18.0533 131.54 17.6733 131.807 17.18C132.087 16.6867 132.227 16.1 132.227 15.42Z" fill="#F37B44"/>
</svg>
